<?xml version="1.0" encoding="utf-8"?>
<!-- Generator: Adobe Illustrator 23.0.5, SVG Export Plug-In . SVG Version: 6.00 Build 0)  -->
<svg version="1.1" id="Vrstva_1" xmlns="http://www.w3.org/2000/svg" xmlns:xlink="http://www.w3.org/1999/xlink" x="0px" y="0px"
	 viewBox="0 0 24 24" style="enable-background:new 0 0 24 24;" xml:space="preserve">
<path style="fill:#595757;" d="M20,6.5H4v14.4C4,21.5,4.5,22,5,22h14c0.6,0,1-0.5,1-1.1C20,17,20,6.5,20,6.5z M14.3,9
	C14.7,9,15,9.3,15,9.8v8.5c0,0.4-0.3,0.8-0.8,0.8s-0.8-0.3-0.8-0.8V9.8C13.5,9.3,13.9,9,14.3,9z M9.8,9c0.4,0,0.8,0.3,0.8,0.8v8.5
	c0,0.4-0.3,0.8-0.8,0.8S9,18.7,9,18.3V9.8C9,9.3,9.4,9,9.8,9z M9,4V3c0-0.5,0.5-1,1-1h4c0.5,0,1,0.5,1,1v1h5.3C20.7,4,21,4.3,21,4.7
	s-0.3,0.7-0.7,0.7H3.8C3.3,5.5,3,5.2,3,4.7S3.3,4,3.8,4L9,4z M13.5,4V3.5h-3V4H13.5z"/>
</svg>
