<?xml version="1.0" encoding="utf-8"?>
<!-- Generator: Adobe Illustrator 23.0.5, SVG Export Plug-In . SVG Version: 6.00 Build 0)  -->
<svg version="1.1" id="Vrstva_1" xmlns="http://www.w3.org/2000/svg" xmlns:xlink="http://www.w3.org/1999/xlink" x="0px" y="0px"
	 viewBox="0 0 100 100" style="enable-background:new 0 0 100 100;" xml:space="preserve">
<style type="text/css">
	.st0{fill:none;stroke:#000000;stroke-width:4.5;stroke-miterlimit:10;}
	.st1{fill:none;stroke:#000000;stroke-width:1.2;stroke-miterlimit:10;}
</style>
<line class="st0" x1="45.4" y1="45.2" x2="29.1" y2="71.4"/>
<line class="st0" x1="56.7" y1="38.4" x2="88.7" y2="52.4"/>
<line class="st1" x1="51.7" y1="34.8" x2="55.8" y2="22.6"/>
<line class="st1" x1="46.3" y1="35.3" x2="42.2" y2="25.3"/>
<line class="st1" x1="42.7" y1="38.4" x2="32.3" y2="30.8"/>
<polyline points="43.4,44 46.4,41.9 46.6,44.2 48.4,43.6 47.2,46.5 "/>
<polyline points="57.7,36.4 53.6,34.6 55.9,37.8 53.6,39.6 55.9,40.6 "/>
<path d="M32.2,70.6l-1.7,2.8c-1.4,1.4-3.2,2.3-5,2.3c0,0-6.8-0.5-13.1-0.5c-3.6,0-3.6-6.3,0-6.3c4.5,0,10.8,0,14,0
	c1.8,0,3.2-2.6,3.2-2.6L32.2,70.6z"/>
<path d="M87.4,55.1L87.4,55.1c-0.5,0-0.9-0.9-0.5-1.4l1.4-3.6c0-0.5,0.9-0.9,1.4-0.5l0,0c0.5,0,0.9,0.9,0.5,1.4l-1.4,3.6
	C88.3,55.1,87.8,55.6,87.4,55.1z"/>
</svg>
