<?xml version="1.0" encoding="utf-8"?>
<!-- Generator: Adobe Illustrator 23.0.5, SVG Export Plug-In . SVG Version: 6.00 Build 0)  -->
<svg version="1.1" id="Vrstva_1" xmlns="http://www.w3.org/2000/svg" xmlns:xlink="http://www.w3.org/1999/xlink" x="0px" y="0px"
	 viewBox="0 0 24 24" style="enable-background:new 0 0 24 24;" xml:space="preserve">
<path style="fill-rule:evenodd;clip-rule:evenodd;fill:#595757;" d="M24,23H0V4h4V1h4v3h8V1h4v3h4V23z M23,8H1v14h22V8z M6.5,16.8
	l1-0.1c0.2,0.9,0.7,1.5,1.6,1.5c1,0,1.7-0.7,1.7-1.6c0-1-0.8-1.8-2.4-1.4l0.1-0.8c0.9,0.1,1.9-0.3,1.9-1.3c0-0.7-0.5-1.2-1.4-1.2
	c-0.8,0-1.4,0.5-1.5,1.4l-1-0.2c0.3-1.3,1.2-2,2.5-2c1.4,0,2.5,0.9,2.5,2c0,0.6-0.4,1.2-1.2,1.6c1,0.2,1.6,0.9,1.6,1.9
	C12,18,10.7,19,9.2,19C7.6,19,6.6,18.1,6.5,16.8z M16,19h-1v-6.3c-0.5,0.5-1.4,0.9-2,1.2V13c1.3-0.6,2-1.4,2.3-2H16
	C16,11,16,19,16,19z M23,5H1v2h22V5z M7,2H5v2h2V2z M19,2h-2v2h2V2z"/>
</svg>
