<?xml version="1.0" encoding="utf-8"?>
<!-- Generator: Adobe Illustrator 23.0.5, SVG Export Plug-In . SVG Version: 6.00 Build 0)  -->
<svg version="1.1" id="Vrstva_1" xmlns="http://www.w3.org/2000/svg" xmlns:xlink="http://www.w3.org/1999/xlink" x="0px" y="0px"
	 viewBox="0 0 100 100" style="enable-background:new 0 0 100 100;" xml:space="preserve">
<rect x="10" y="26.3" style="fill:none;stroke:#595757;stroke-miterlimit:10;" width="30.4" height="47.3"/>
<rect x="59.6" y="26.3" style="fill:none;stroke:#595757;stroke-miterlimit:10;" width="30.4" height="47.3"/>
<circle style="fill:#595757;stroke:#595757;stroke-miterlimit:10;" cx="50.2" cy="41.1" r="2.8"/>
<circle style="fill:#595757;stroke:#595757;stroke-miterlimit:10;" cx="50.2" cy="58.9" r="2.8"/>
<g style="enable-background:new    ;">
	<path style="fill:#595757;stroke:#595757;stroke-miterlimit:10;" d="M18.7,38.8c1.4-2.3,3.7-3.4,7.1-3.4c3.3,0,5.7,1.1,7.1,3.4
		c1.4,2.3,2,5.4,2,9.5s-0.7,7.3-2,9.6c-1.4,2.3-3.7,3.4-7.1,3.4c-3.3,0-5.7-1.1-7.1-3.4c-1.4-2.3-2-5.5-2-9.6
		C16.6,44.2,17.3,41.1,18.7,38.8z M30.5,43.4c-0.2-1.3-0.7-2.4-1.5-3.2c-0.7-0.8-1.9-1.2-3.3-1.2c-1.5,0-2.6,0.4-3.3,1.2
		c-0.7,0.8-1.2,1.9-1.5,3.2c-0.2,1.3-0.4,2.9-0.4,4.8c0,2,0.1,3.6,0.4,4.9c0.2,1.3,0.7,2.4,1.5,3.2s1.9,1.2,3.3,1.2
		c1.5,0,2.6-0.4,3.3-1.2c0.8-0.8,1.3-1.9,1.5-3.2s0.4-3,0.4-4.9C30.9,46.4,30.8,44.8,30.5,43.4z"/>
</g>
<g style="enable-background:new    ;">
	<path style="fill:#595757;stroke:#595757;stroke-miterlimit:10;" d="M67.9,38c1.4-2.3,3.7-3.4,7.1-3.4s5.7,1.1,7.1,3.4
		c1.4,2.3,2,5.4,2,9.5s-0.7,7.3-2,9.6c-1.4,2.3-3.7,3.4-7.1,3.4s-5.7-1.1-7.1-3.4c-1.4-2.3-2-5.5-2-9.6S66.6,40.3,67.9,38z
		 M79.8,42.7c-0.2-1.3-0.7-2.4-1.5-3.2c-0.7-0.8-1.9-1.2-3.3-1.2s-2.6,0.4-3.3,1.2c-0.7,0.8-1.2,1.9-1.5,3.2s-0.4,2.9-0.4,4.8
		c0,2,0.1,3.6,0.3,4.9s0.7,2.4,1.5,3.2s1.9,1.2,3.3,1.2s2.6-0.4,3.3-1.2c0.8-0.8,1.3-1.9,1.5-3.2s0.3-3,0.3-4.9
		C80.2,45.6,80,44,79.8,42.7z"/>
</g>
</svg>
