<?xml version="1.0" encoding="utf-8"?>
<!-- Generator: Adobe Illustrator 23.0.5, SVG Export Plug-In . SVG Version: 6.00 Build 0)  -->
<svg version="1.1" id="Vrstva_1" xmlns="http://www.w3.org/2000/svg" xmlns:xlink="http://www.w3.org/1999/xlink" x="0px" y="0px"
	 viewBox="0 0 24 24" style="enable-background:new 0 0 24 24;" xml:space="preserve">
<style type="text/css">
	.st0{fill-rule:evenodd;clip-rule:evenodd;}
	.st1{fill:none;stroke:#000000;stroke-miterlimit:10;}
</style>
<path class="st0" d="M21.2,24l-7.4-7.4c-1.4,0.9-3,1.4-4.8,1.4c-5,0-9-4-9-9s4-9,9-9s9,4,9,9c0,1.8-0.5,3.4-1.4,4.8l7.4,7.4
	C24,21.2,21.2,24,21.2,24z M9,16c3.9,0,7-3.1,7-7s-3.1-7-7-7S2,5.1,2,9S5.1,16,9,16z"/>
<polyline class="st1" points="12.7,2 12.2,5 9.9,5.3 10.2,7.5 "/>
</svg>
