<?xml version="1.0" encoding="utf-8"?>
<!-- Generator: Adobe Illustrator 23.0.5, SVG Export Plug-In . SVG Version: 6.00 Build 0)  -->
<svg version="1.1" id="Vrstva_1" xmlns="http://www.w3.org/2000/svg" xmlns:xlink="http://www.w3.org/1999/xlink" x="0px" y="0px"
	 viewBox="0 0 24 24" style="enable-background:new 0 0 24 24;" xml:space="preserve">
<path style="fill-rule:evenodd;clip-rule:evenodd;fill:#595757;" d="M12,10c-1.1,0-2-0.9-2-2s0.9-2,2-2s2,0.9,2,2S13.1,10,12,10
	 M12,5c-1.7,0-3,1.3-3,3s1.3,3,3,3s3-1.3,3-3S13.7,5,12,5 M5,7.6C5,4.1,8.3,1,12,1s7,3.1,7,6.6c0,3.5-2.6,7.5-7,14.5
	C7.5,15.1,5,11.1,5,7.6 M12,0C7.8,0,4,3.4,4,7.6c0,4.2,3.5,9.2,8,16.4c4.5-7.2,8-12.2,8-16.4C20,3.4,16.2,0,12,0"/>
</svg>
