<svg style="position: absolute; width: 0; height: 0;" width="0" height="0" version="1.1" xmlns="http://www.w3.org/2000/svg" xmlns:xlink="http://www.w3.org/1999/xlink">
    <symbol viewBox="0 0 24 24" id="trophy" xmlns="http://www.w3.org/2000/svg">
        <path d="M24 3c-.372 4.105-2.808 8.091-6.873 9.438.297-.552.596-1.145.882-1.783 2.915-1.521 4.037-4.25 4.464-6.251h-2.688c.059-.45.103-.922.139-1.405H24zM0 3c.372 4.105 2.808 8.091 6.873 9.438a27.473 27.473 0 0 1-.882-1.783c-2.915-1.521-4.037-4.25-4.464-6.251h2.688A26.405 26.405 0 0 1 4.077 3H0zm16.921 0c-.368 4.506-1.953 7.23-3.372 9.669-.577.993-1.136 1.953-1.543 2.95-.408-.998-.969-1.959-1.548-2.953C9.036 10.229 7.447 7.505 7.079 3h9.842zM19 1H5c0 9.803 5.105 13.053 5.604 17h2.805C13.906 14.053 19 10.803 19 1zm-7 11.547C10.875 9.984 10.151 6.948 10.143 4H8.76c.374 3.118 1.857 7.023 3.24 8.547zM13.438 19h-2.866c-.202 1.187-.63 2.619-2.571 2.619V23h8v-1.381c-1.999 0-2.371-1.432-2.563-2.619z"/>
    </symbol>

    <symbol viewBox="0 0 100 100" style="enable-background:new 0 0 100 100" xml:space="preserve" id="team" xmlns="http://www.w3.org/2000/svg">
<path d="M77.8 77.8C77.8 62.5 65.4 50 50 50S22.2 62.5 22.2 77.8"/>
        <circle cx="50" cy="30.9" r="13.8"/>
        <path d="M33 69.1c0-9-7.3-16.4-16.4-16.4S.3 60 .3 69.1"/>
        <circle cx="16.7" cy="41.4" r="8.1"/>
        <path d="M99.3 69.1c0-9-7.3-16.4-16.4-16.4S66.6 60 66.6 69.1"/>
        <circle cx="82.9" cy="41.4" r="8.1"/>
</symbol>

    <symbol fill-rule="evenodd" clip-rule="evenodd" viewBox="0 0 24 24" id="place" xmlns="http://www.w3.org/2000/svg">
        <path d="M12 10a2 2 0 1 1 .001-4.001A2 2 0 0 1 12 10m0-5a3 3 0 1 0 0 6 3 3 0 0 0 0-6M5 7.602C5 4.085 8.271 1 12 1s7 3.085 7 6.602c0 3.455-2.563 7.543-7 14.527-4.489-7.073-7-11.072-7-14.527M12 0C7.802 0 4 3.403 4 7.602 4 11.8 7.469 16.812 12 24c4.531-7.188 8-12.2 8-16.398C20 3.403 16.199 0 12 0"/>
    </symbol>

    <symbol viewBox="0 0 100 100" style="enable-background:new 0 0 100 100" xml:space="preserve" id="person" xmlns="http://www.w3.org/2000/svg">
<path d="M85.9 89.3c0-19.9-16.1-35.9-35.9-35.9S14.1 69.5 14.1 89.3"/>
        <circle cx="50" cy="28.6" r="17.9"/>
</symbol>

    <symbol viewBox="0 0 24 24" id="pencil" xmlns="http://www.w3.org/2000/svg">
        <path d="M7.127 22.562 0 24l1.438-7.128 5.689 5.69zm1.414-1.414L19.769 9.923l-5.69-5.692L2.852 15.458l5.689 5.69zM18.309 0l-2.816 2.817 5.691 5.691L24 5.689 18.309 0z"/>
    </symbol>

    <symbol viewBox="0 0 100 100" xml:space="preserve" id="match" xmlns="http://www.w3.org/2000/svg">
<path fill="none" stroke="#000" stroke-miterlimit="10" d="M10 26.3h30.4v47.3H10zM59.6 26.3H90v47.3H59.6z"/>
        <circle stroke="#000" stroke-miterlimit="10" cx="50.2" cy="41.1" r="2.8"/>
        <circle stroke="#000" stroke-miterlimit="10" cx="50.2" cy="58.9" r="2.8"/>
        <path d="M18.7 38.8c1.4-2.3 3.7-3.4 7.1-3.4 3.3 0 5.7 1.1 7.1 3.4 1.4 2.3 2 5.4 2 9.5s-.7 7.3-2 9.6c-1.4 2.3-3.7 3.4-7.1 3.4-3.3 0-5.7-1.1-7.1-3.4-1.4-2.3-2-5.5-2-9.6-.1-4.1.6-7.2 2-9.5zm11.8 4.6c-.2-1.3-.7-2.4-1.5-3.2-.7-.8-1.9-1.2-3.3-1.2-1.5 0-2.6.4-3.3 1.2-.7.8-1.2 1.9-1.5 3.2-.2 1.3-.4 2.9-.4 4.8 0 2 .1 3.6.4 4.9.2 1.3.7 2.4 1.5 3.2.8.8 1.9 1.2 3.3 1.2 1.5 0 2.6-.4 3.3-1.2.8-.8 1.3-1.9 1.5-3.2s.4-3 .4-4.9c0-1.8-.1-3.4-.4-4.8zM67.9 38c1.4-2.3 3.7-3.4 7.1-3.4s5.7 1.1 7.1 3.4c1.4 2.3 2 5.4 2 9.5s-.7 7.3-2 9.6c-1.4 2.3-3.7 3.4-7.1 3.4s-5.7-1.1-7.1-3.4c-1.4-2.3-2-5.5-2-9.6s.7-7.2 2-9.5zm11.9 4.7c-.2-1.3-.7-2.4-1.5-3.2-.7-.8-1.9-1.2-3.3-1.2s-2.6.4-3.3 1.2c-.7.8-1.2 1.9-1.5 3.2s-.4 2.9-.4 4.8c0 2 .1 3.6.3 4.9s.7 2.4 1.5 3.2c.8.8 1.9 1.2 3.3 1.2s2.6-.4 3.3-1.2c.8-.8 1.3-1.9 1.5-3.2s.3-3 .3-4.9c.2-1.9 0-3.5-.2-4.8z"/>
</symbol>

    <symbol fill-rule="evenodd" clip-rule="evenodd" viewBox="0 0 24 24" id="clock" xmlns="http://www.w3.org/2000/svg">
        <path d="M12 0c6.623 0 12 5.377 12 12s-5.377 12-12 12S0 18.623 0 12 5.377 0 12 0zm0 1c6.071 0 11 4.929 11 11s-4.929 11-11 11S1 18.071 1 12 5.929 1 12 1zm0 11h6v1h-7V4h1v8z"/>
    </symbol>

    <symbol fill-rule="evenodd" clip-rule="evenodd" viewBox="0 0 24 24" id="calendar" xmlns="http://www.w3.org/2000/svg">
        <path d="M24 23H0V4h4V1h4v3h8V1h4v3h4v19zM23 8H1v14h22V8zM6.499 16.794l1.032-.128c.201.93.693 1.538 1.644 1.538.957 0 1.731-.686 1.731-1.634 0-.989-.849-1.789-2.373-1.415l.115-.843c.91.09 1.88-.348 1.88-1.298 0-.674-.528-1.224-1.376-1.224-.791 0-1.364.459-1.518 1.41l-1.032-.171C6.86 11.71 7.829 11 9.129 11c1.411 0 2.459.893 2.459 2.035 0 .646-.363 1.245-1.158 1.586.993.213 1.57.914 1.57 1.928C12 18.009 10.706 19 9.169 19c-1.531 0-2.537-.945-2.67-2.206zM16 19h-1.031v-6.265c-.519.461-1.354.947-1.969 1.159v-.929c1.316-.576 2.036-1.402 2.336-1.965H16v8zm7-14H1v2h22V5zM7 2H5v2h2V2zm12 0h-2v2h2V2z"/>
    </symbol>

    <symbol clip-rule="evenodd" fill-rule="evenodd" stroke-linejoin="round" stroke-miterlimit="2" viewBox="0 0 24 24" id="bin" xmlns="http://www.w3.org/2000/svg">
        <path d="M20.015 6.506h-16v14.423c0 .591.448 1.071 1 1.071h14c.552 0 1-.48 1-1.071V6.506zM14.265 9a.75.75 0 0 1 .75.75v8.5a.75.75 0 0 1-1.5 0v-8.5a.75.75 0 0 1 .75-.75zm-4.5 0a.75.75 0 0 1 .75.75v8.5a.75.75 0 0 1-1.5 0v-8.5a.75.75 0 0 1 .75-.75zm-.75-5V3c0-.535.474-1 1-1h4c.526 0 1 .465 1 1v1h5.254a.747.747 0 0 1 0 1.494H3.762a.747.747 0 0 1 0-1.494zm4.5 0v-.5h-3V4z" fill-rule="nonzero"/>
    </symbol>
</svg>