<?xml version="1.0" encoding="utf-8"?>
<!-- Generator: Adobe Illustrator 23.0.5, SVG Export Plug-In . SVG Version: 6.00 Build 0)  -->
<svg version="1.1" id="Vrstva_1" xmlns="http://www.w3.org/2000/svg" xmlns:xlink="http://www.w3.org/1999/xlink" x="0px" y="0px"
	 viewBox="0 0 24 24" style="enable-background:new 0 0 24 24;" xml:space="preserve">
<style type="text/css">
	.st0{fill:#595757;}
</style>
<path class="st0" d="M12,2c5.5,0,10,4.5,10,10c0,5.5-4.5,10-10,10C6.5,22,2,17.5,2,12C2,6.5,6.5,2,12,2z M12,10.9L9.3,8.2
	C9.1,8.1,8.9,8,8.8,8C8.3,8,8,8.3,8,8.7c0,0.2,0.1,0.4,0.2,0.5l2.7,2.7l-2.7,2.7C8.1,14.9,8,15.1,8,15.3C8,15.7,8.3,16,8.7,16
	c0.2,0,0.4-0.1,0.5-0.2l2.7-2.7l2.7,2.7c0.1,0.1,0.3,0.2,0.5,0.2c0.4,0,0.8-0.3,0.8-0.8c0-0.2-0.1-0.4-0.2-0.5L13.1,12l2.7-2.7
	C15.9,9.1,16,8.9,16,8.8C16,8.3,15.7,8,15.2,8c-0.2,0-0.4,0.1-0.5,0.2L12,10.9z"/>
</svg>
